<svg width="34" height="45" viewBox="0 0 34 45" fill="none" xmlns="http://www.w3.org/2000/svg">
<path fill-rule="evenodd" clip-rule="evenodd" d="M16.7848 0C23.2122 0 28.9875 3.60001 31.8752 9.42633C34.3903 14.5421 34.3902 20.1789 31.782 24.9158C29.4067 29.321 18.9738 42.2526 18.5081 42.8211L16.7848 45L15.0149 42.8684L14.9624 42.804C13.6178 41.152 3.89914 29.2116 1.74093 24.8684C-0.215229 20.9368 -0.541268 16.2 0.855992 11.8421C2.29983 7.43684 5.23407 3.88422 9.23955 1.84738C11.6149 0.615801 14.13 0 16.7848 0Z" fill="#0E0E0E"/>
<path d="M20.8828 19.7578V19.7578C21.4653 19.7578 21.9375 19.2861 21.9375 18.7036C21.9375 17.2131 21.9375 14.8946 21.9375 12.7969C21.9375 11.4109 21.3446 10.4844 20.6154 9.89188C19.6818 9.13324 18.5625 10.0626 18.5625 11.2656V19.7578M20.8828 19.7578V24.7148C20.8828 25.3556 20.3634 25.875 19.7227 25.875V25.875C19.0819 25.875 18.5625 25.3556 18.5625 24.7148V19.7578M20.8828 19.7578H18.5625M11.8125 9V12.375M11.8125 12.375V14.5676C11.8125 15.0427 12.05 15.4864 12.4453 15.75V15.75C12.8407 16.0136 13.0781 16.4573 13.0781 16.9324V24.8203C13.0781 25.4028 13.5503 25.875 14.1328 25.875V25.875C14.7153 25.875 15.1875 25.4028 15.1875 24.8203V16.9324C15.1875 16.4573 15.425 16.0136 15.8203 15.75V15.75C16.2157 15.4864 16.4531 15.0427 16.4531 14.5676V12.375M11.8125 12.375H14.1328M14.1328 12.375V9M14.1328 12.375H16.4531M16.4531 12.375V9.42188V9" stroke="white" stroke-linecap="round"/>
</svg>
