<svg width="64" height="80" viewBox="0 0 64 80" fill="none" xmlns="http://www.w3.org/2000/svg">
<path d="M64 32C64 56 32 80 32 80C32 80 0 56 0 32C0 23.5131 3.37142 15.3737 9.37258 9.37258C15.3737 3.37142 23.5131 0 32 0C40.4869 0 48.6263 3.37142 54.6274 9.37258C60.6286 15.3737 64 23.5131 64 32Z" fill="black"/>
<path d="M39.125 37.125V37.125C40.1605 37.125 41 36.2864 41 35.2508C41 32.601 41 28.4793 41 24.75C41 21.3789 39.027 19.5368 37.1595 18.6523C36.0723 18.1373 35 19.0626 35 20.2656V37.125M39.125 37.125V46C39.125 47.1046 38.2296 48 37.125 48H37C35.8954 48 35 47.1046 35 46V37.125M39.125 37.125H35M23 18V24M23 24V28.1796C23 28.8483 23.3342 29.4728 23.8906 29.8437L24.3594 30.1563C24.9158 30.5272 25.25 31.1517 25.25 31.8204V46.125C25.25 47.1605 26.0895 48 27.125 48V48C28.1605 48 29 47.1605 29 46.125V31.8204C29 31.1517 29.3342 30.5272 29.8906 30.1563L30.3594 29.8437C30.9158 29.4728 31.25 28.8483 31.25 28.1796V24M23 24H27.125M27.125 24V18M27.125 24H31.25M31.25 24V18.75V18" stroke="white" stroke-width="1.5" stroke-linecap="round"/>
</svg>
