<svg width="45" height="60" viewBox="0 0 45 60" fill="none" xmlns="http://www.w3.org/2000/svg">
<path fill-rule="evenodd" clip-rule="evenodd" d="M22.3797 0C30.9495 0 38.65 4.80002 42.5002 12.5684C45.8537 19.3895 45.8537 26.9053 42.376 33.221C39.2089 39.0947 25.2984 56.3369 24.6774 57.0948L22.3797 60L20.0199 57.1579L19.9499 57.0719C18.1571 54.8693 5.19885 38.9488 2.32125 33.1579C-0.286973 27.9158 -0.721691 21.6 1.14132 15.7895C3.06644 9.91579 6.97877 5.17896 12.3194 2.46317C15.4865 0.821068 18.84 0 22.3797 0Z" fill="#181818"/>
<path d="M20.25 12.75V19.5H13.5V24H20.25V30.75H24.75V24H31.5V19.5H24.75V12.75H20.25Z" stroke="white"/>
</svg>
