<svg width="64" height="80" viewBox="0 0 64 80" fill="none" xmlns="http://www.w3.org/2000/svg">
<path d="M64 32C64 56 32 80 32 80C32 80 0 56 0 32C0 23.5131 3.37142 15.3737 9.37258 9.37258C15.3737 3.37142 23.5131 0 32 0C40.4869 0 48.6263 3.37142 54.6274 9.37258C60.6286 15.3737 64 23.5131 64 32Z" fill="black"/>
<path d="M26.8491 34.024C26.8491 34.3752 26.5695 34.6461 26.2418 34.6461C25.9143 34.6461 25.6348 34.3754 25.6348 34.024C25.6348 33.6723 25.9144 33.4016 26.2418 33.4016C26.5694 33.4016 26.8491 33.6724 26.8491 34.024Z" stroke="white" stroke-width="1.5"/>
<path d="M38.5669 34.024C38.5669 34.3753 38.2873 34.6461 37.9596 34.6461C37.6321 34.6461 37.3525 34.3754 37.3525 34.024C37.3525 33.6723 37.6322 33.4016 37.9596 33.4016C38.2872 33.4016 38.5669 33.6724 38.5669 34.024Z" stroke="white" stroke-width="1.5"/>
<path d="M23.7638 23.1239L23.7646 23.123C24.8056 22.0151 26.2308 21.3653 27.6347 20.9957C29.0339 20.6273 30.3535 20.5526 31.1142 20.5526H31.8544H31.9777C31.9847 20.5526 32.0032 20.5517 32.0323 20.5504C32.3248 20.5365 33.6939 20.4719 35.3801 20.731C37.2536 21.019 39.3451 21.6856 40.6828 23.1208L40.6857 23.1239C42.4474 24.9928 43.6085 27.6973 44.3276 30.2003C45.0429 32.6894 45.291 34.8708 45.2932 35.6355C45.2038 38.6805 44.0536 41.0491 42.0408 42.6715C40.008 44.31 37.0161 45.25 33.1499 45.25H31.2992C27.4327 45.25 24.425 44.3099 22.3844 42.6708C20.3641 41.048 19.2158 38.6805 19.1563 35.6389C19.1577 34.8459 19.4057 32.6615 20.1216 30.1773C20.8404 27.6834 22.0013 24.9936 23.7638 23.1239Z" stroke="white" stroke-width="1.5"/>
<path d="M41.7075 22.6271L41.7066 22.6262C40.3953 21.4064 40.2968 19.627 41.1983 18.6243L41.2113 18.6098L41.2235 18.5947C41.594 18.1368 42.3328 17.8093 43.2548 17.75H43.4167C44.2096 17.75 44.9611 18.0497 45.5131 18.4998C46.04 18.998 46.2842 19.7511 46.2457 20.5831C46.2065 21.4273 45.8773 22.2548 45.3884 22.7986L45.386 22.8013C44.968 23.2709 44.4747 23.5013 43.8559 23.5502C43.1961 23.5932 42.4048 23.278 41.7075 22.6271Z" stroke="white" stroke-width="1.5"/>
<path d="M22.8656 19.0761L22.8719 19.0838L22.8784 19.0914C23.7385 20.0986 23.6314 21.8929 22.3765 23.1134C21.6913 23.7508 20.899 24.0785 20.1003 24.0311L20.0782 24.0297L20.056 24.0297C19.5141 24.0296 19.0208 23.7845 18.566 23.3294C18.0887 22.7909 17.7776 21.9755 17.7517 21.1385C17.7258 20.2996 17.9865 19.5339 18.5287 19.0306C19.0645 18.5386 19.8066 18.2315 20.6727 18.2315H20.8345C21.7561 18.2906 22.4951 18.6181 22.8656 19.0761Z" stroke="white" stroke-width="1.5"/>
<path d="M32.4758 37.9439C34.571 37.9439 35.0948 36.66 35.0948 36.0181H29.3807C29.3807 36.981 29.8568 37.9439 32.4758 37.9439ZM32.4758 37.9439V39.1476M32.4758 39.1476C32.8726 40.0303 34.1424 41.555 36.0471 40.592M32.4758 39.1476C32.079 40.0303 30.8568 41.555 29.1426 40.592" stroke="white" stroke-width="1.5"/>
</svg>
