<svg width="45" height="60" viewBox="0 0 45 60" fill="none" xmlns="http://www.w3.org/2000/svg">
<path fill-rule="evenodd" clip-rule="evenodd" d="M22.3797 0C30.9495 0 38.65 4.80002 42.5002 12.5684C45.8537 19.3895 45.8537 26.9053 42.376 33.221C39.2089 39.0947 25.2984 56.3369 24.6774 57.0948L22.3797 60L20.0199 57.1579L19.9499 57.0719C18.1571 54.8693 5.19885 38.9488 2.32125 33.1579C-0.286973 27.9158 -0.721691 21.6 1.14132 15.7895C3.06644 9.91579 6.97877 5.17896 12.3194 2.46317C15.4865 0.821068 18.84 0 22.3797 0Z" fill="#181818"/>
<path d="M18.6998 24.7676C18.6998 25.0649 18.4628 25.2967 18.1819 25.2967C17.9011 25.2967 17.6641 25.065 17.6641 24.7676C17.6641 24.4699 17.9011 24.2383 18.1819 24.2383C18.4627 24.2383 18.6998 24.47 18.6998 24.7676Z" stroke="white"/>
<path d="M27.4869 24.7676C27.4869 25.0649 27.2499 25.2967 26.969 25.2967C26.6882 25.2967 26.4512 25.065 26.4512 24.7676C26.4512 24.4699 26.6882 24.2383 26.969 24.2383C27.2498 24.2383 27.4869 24.47 27.4869 24.7676Z" stroke="white"/>
<path d="M16.2774 16.5502L16.2779 16.5496C17.0696 15.7071 18.1508 15.2154 19.2101 14.9365C20.2663 14.6584 21.2617 14.6021 21.8356 14.6021H22.3908H22.4833C22.4881 14.6021 22.501 14.6015 22.5215 14.6005C22.735 14.5903 23.7706 14.5409 25.0446 14.7367C26.4542 14.9533 28.0401 15.4562 29.0578 16.5482L29.0598 16.5502C30.391 17.9625 31.2653 20.002 31.8058 21.8831C32.3437 23.755 32.5309 25.3977 32.5324 25.9776C32.4651 28.2779 31.5955 30.0727 30.0698 31.3025C28.5308 32.543 26.2715 33.2502 23.3624 33.2502H21.9744C19.0652 33.2502 16.794 32.5429 15.2492 31.302C13.7179 30.072 12.8495 28.2779 12.8047 25.9799C12.8056 25.3785 12.9928 23.7339 13.5312 21.8659C14.0714 19.9914 14.9456 17.963 16.2774 16.5502Z" stroke="white"/>
<path d="M29.737 16.266L29.7364 16.2654C28.7337 15.3326 28.6475 13.9593 29.3512 13.1764L29.3599 13.1668L29.3681 13.1567C29.6613 12.7944 30.2359 12.5448 30.9381 12.5H31.0616C31.6724 12.5 32.2505 12.731 32.6751 13.0779C33.088 13.4671 33.2753 14.0523 33.2457 14.6902C33.2158 15.3362 32.9641 15.971 32.5868 16.3908L32.5852 16.3926C32.2602 16.7576 31.8749 16.9372 31.3955 16.975C30.8786 17.0089 30.2688 16.7624 29.737 16.266Z" stroke="white"/>
<path d="M15.6978 13.5179L15.6976 13.5181L15.7063 13.5282C16.3774 14.314 16.2855 15.6973 15.3255 16.6305C14.8018 17.1178 14.1914 17.3727 13.5715 17.3359L13.5567 17.335L13.542 17.335C13.114 17.3349 12.7285 17.1404 12.379 16.7901C12.0094 16.374 11.7712 15.7472 11.7513 15.106C11.7315 14.4636 11.931 13.8699 12.3541 13.4772C12.7678 13.0973 13.3397 12.8613 14.0045 12.8613H14.1279C14.8298 12.9059 15.4046 13.1555 15.6978 13.5179Z" stroke="white"/>
<path d="M22.8573 27.7081C24.4287 27.7081 24.8216 26.7451 24.8216 26.2637H20.536C20.536 26.9859 20.8931 27.7081 22.8573 27.7081ZM22.8573 27.7081V28.6108M22.8573 28.6108C23.155 29.2729 24.1073 30.4164 25.5358 29.6941M22.8573 28.6108C22.5597 29.2729 21.6431 30.4164 20.3574 29.6941" stroke="white"/>
</svg>
