<svg width="45" height="59" viewBox="0 0 45 59" fill="none" xmlns="http://www.w3.org/2000/svg">
<path fill-rule="evenodd" clip-rule="evenodd" d="M25.0751 0.136191C25.0751 0.136191 23.7429 1.95634e-06 22.3898 1.83805e-06C21.0367 1.71975e-06 19.6676 0.13619 19.6676 0.13619C12.9148 0.686036 7.14285 4.81718 3.87197 9.67898C-1.11349 17.1164 -0.571504 25.6895 1.53309 31.586C3.66972 39.0813 15.8164 51.8715 19.7467 56.1256L22.5194 59L25.1279 56.387C28.768 52.538 40.3237 40.3546 43.3308 31.586C45.3091 25.7982 46.5933 18.0248 40.8111 9.66139C36.8808 3.4105 30.4299 0.599219 25.0751 0.136191ZM19.6676 7.57712C15.4027 8.26814 12.9088 9.72827 10.0947 13.3398C6.4282 18.8383 6.7382 24.0041 7.66143 27.9688L19.6676 14.1356C19.7204 14.0778 19.7467 14.0199 19.7467 13.9331L19.6676 7.57712ZM19.2983 21.7177L9.32207 33.1965C12.0126 37.6532 16.0538 42.5715 19.7467 46.8545L19.7467 21.9203C19.7467 21.6598 19.4566 21.5151 19.2983 21.7177ZM31.0467 39.2305C28.8965 42.2623 26.967 44.5156 24.6086 46.7534L28.0163 43.16L31.0467 39.2305ZM25.1015 19.4026L24.6086 46.7534L28.0163 43.16L31.0467 39.2305C33.1338 37.0878 36.1687 30.8649 36.8809 28.7813C37.3557 27.3922 37.6148 25.4272 37.7467 23.2857L25.4708 17.1743C25.3125 17.0874 25.1015 17.2321 25.1015 17.4347L25.1015 19.4026ZM36.8395 17.4347C36.295 15.4405 35.6579 14.852 34.5774 13.0021C31.9637 9.94657 30.3358 8.74241 25.0751 7.30947L25.0751 11.3575C25.0751 11.4732 25.1279 11.56 25.2334 11.6179L36.8395 17.4347Z" fill="#8CB90C"/>
</svg>
