<svg width="45" height="60" viewBox="0 0 45 60" fill="none" xmlns="http://www.w3.org/2000/svg">
<path fill-rule="evenodd" clip-rule="evenodd" d="M22.3797 0C30.9495 0 38.65 4.80002 42.5002 12.5684C45.8537 19.3895 45.8537 26.9053 42.376 33.221C39.2089 39.0947 25.2984 56.3369 24.6774 57.0948L22.3797 60L20.0199 57.1579L19.9499 57.0719C18.1571 54.8693 5.19885 38.9488 2.32125 33.1579C-0.286973 27.9158 -0.721691 21.6 1.14132 15.7895C3.06644 9.91579 6.97877 5.17896 12.3194 2.46317C15.4865 0.821068 18.84 0 22.3797 0Z" fill="#181818"/>
<rect x="12.0547" y="15" width="20.8929" height="6.54557" rx="2" stroke="white"/>
<rect x="11.25" y="24" width="22.5" height="4.09098" rx="2" stroke="white"/>
<path d="M12.8574 28.0908H16.0717V31.3929C16.0717 32.2805 15.3522 33 14.4646 33V33C13.577 33 12.8574 32.2805 12.8574 31.3929V28.0908Z" stroke="white"/>
<path d="M28.9277 28.0908H32.142V31.3929C32.142 32.2805 31.4225 33 30.5349 33V33C29.6473 33 28.9277 32.2805 28.9277 31.3929V28.0908Z" stroke="white"/>
<path d="M16.0703 21.5459V24.0005M28.9275 21.5459V24.0005" stroke="white"/>
</svg>
