<svg width="45" height="60" viewBox="0 0 45 60" fill="none" xmlns="http://www.w3.org/2000/svg">
<path fill-rule="evenodd" clip-rule="evenodd" d="M22.3797 0C30.9495 0 38.65 4.80002 42.5002 12.5684C45.8537 19.3895 45.8537 26.9053 42.376 33.221C39.2089 39.0947 25.2984 56.3369 24.6774 57.0948L22.3797 60L20.0199 57.1579L19.9499 57.0719C18.1571 54.8693 5.19885 38.9488 2.32125 33.1579C-0.286973 27.9158 -0.721691 21.6 1.14132 15.7895C3.06644 9.91579 6.97877 5.17896 12.3194 2.46317C15.4865 0.821068 18.84 0 22.3797 0Z" fill="#181818"/>
<path d="M14.7736 29.5424H30.4245M14.7736 29.5424C14.7736 29.8329 14.7736 30.7077 14.7736 32.0212M14.7736 29.5424V26.8729M30.4245 29.5424C30.4245 28.8707 30.4245 27.8818 30.4245 26.8729M30.4245 29.5424V32.0212M30.4245 26.8729C30.4245 25.3997 30.4245 23.8838 30.4245 23.25C30.4245 22.1822 30.0283 21.4068 29.8302 21.1525C29.245 20.546 28.2058 19.4553 27.4528 18.6289M30.4245 26.8729H31.8113C32.2075 26.8729 33 27.178 33 28.3983C33 29.6186 33 30.8136 33 31.2585C33 31.5127 32.7623 32.0212 31.8113 32.0212C30.8604 32.0212 30.4906 32.0212 30.4245 32.0212M30.4245 32.0212V32.2119C30.4245 32.9746 29.9094 34.5 27.8491 34.5C25.7887 34.5 19.4623 34.5 16.5566 34.5C15.9623 34.4364 14.7736 33.928 14.7736 32.4025C14.7736 32.2716 14.7736 32.1445 14.7736 32.0212M14.7736 32.0212H13.3868C12.9245 32.0212 12 31.7924 12 30.8771C12 29.9619 12 28.589 12 28.0169C12 27.6356 12.2774 26.8729 13.3868 26.8729C14.0208 26.8729 14.5755 26.8729 14.7736 26.8729M14.7736 26.8729V23.25C14.7736 22.8051 14.8925 21.7627 15.3679 21.1525C15.7142 20.7081 16.7121 19.5624 17.5349 18.6289M21.3113 16.9576C21.1032 16.9576 20.9033 16.9576 20.717 16.9576C20.4307 16.9576 20.1659 16.9836 19.9245 17.0266M21.3113 16.9576V15.4322C21.3113 15.1144 21.5491 14.4788 22.5 14.4788C23.4509 14.4788 23.6887 15.1144 23.6887 15.4322V16.9576M21.3113 16.9576C22.0858 16.9576 22.9732 16.9576 23.6887 16.9576M23.6887 16.9576C24.0896 16.9576 24.4365 16.9576 24.6792 16.9576C24.7853 16.9576 24.922 16.9657 25.0755 16.9854M25.0755 16.9854C25.5905 17.0518 26.294 17.2502 26.6604 17.7203C26.8118 17.9146 27.1011 18.2429 27.4528 18.6289M25.0755 16.9854L27.4528 12.7627C27.6509 12.5085 28.2453 12 29.0377 12C30.0283 12 31.217 12.3814 30.6226 13.5254C30.1472 14.4407 28.3113 17.3091 27.4528 18.6289M19.9245 17.0266C19.0969 17.1743 18.5441 17.5235 18.3396 17.7203C18.1243 17.9621 17.8418 18.2807 17.5349 18.6289M19.9245 17.0266L17.7453 12.7627C17.6132 12.5085 17.1906 12 16.5566 12C15.9226 12 15.5 12 15.3679 12C14.7736 12.0636 13.7434 12.4576 14.3774 13.5254C15.0113 14.5932 16.7465 17.3727 17.5349 18.6289M17.3491 22.8686V26.1102C17.3491 26.3644 17.5868 26.8729 18.5377 26.8729C19.4887 26.8729 24.4811 26.8729 26.8585 26.8729C27.1887 26.8729 27.8491 26.6822 27.8491 25.9195C27.8491 25.1568 27.8491 23.5678 27.8491 22.8686C27.8491 22.5508 27.6509 21.9153 26.8585 21.9153C26.066 21.9153 20.9811 21.9153 18.5377 21.9153C18.1415 21.9153 17.3491 22.1059 17.3491 22.8686Z" stroke="white"/>
</svg>
