<svg width="64" height="80" viewBox="0 0 64 80" fill="none" xmlns="http://www.w3.org/2000/svg">
<path d="M64 32C64 56 32 80 32 80C32 80 0 56 0 32C0 23.5131 3.37142 15.3737 9.37258 9.37258C15.3737 3.37142 23.5131 0 32 0C40.4869 0 48.6263 3.37142 54.6274 9.37258C60.6286 15.3737 64 23.5131 64 32Z" fill="black"/>
<path d="M21.6981 41.3898H42.566M21.6981 41.3898C21.6981 41.7772 21.6981 42.9436 21.6981 44.6949M21.6981 41.3898V37.8305M42.566 41.3898C42.566 40.4942 42.566 39.1757 42.566 37.8305M42.566 41.3898V44.6949M42.566 37.8305C42.566 35.8663 42.566 33.845 42.566 33C42.566 31.5763 42.0377 30.5424 41.7736 30.2034C40.9934 29.3947 39.6078 27.9404 38.6038 26.8386M42.566 37.8305H44.4151C44.9434 37.8305 46 38.2373 46 39.8644C46 41.4915 46 43.0847 46 43.678C46 44.0169 45.683 44.6949 44.4151 44.6949C43.1472 44.6949 42.6541 44.6949 42.566 44.6949M42.566 44.6949V44.9492C42.566 45.9661 41.8792 48 39.1321 48C36.3849 48 27.9497 48 24.0755 48C23.283 47.9153 21.6981 47.2373 21.6981 45.2034C21.6981 45.0289 21.6981 44.8593 21.6981 44.6949M21.6981 44.6949H19.8491C19.2327 44.6949 18 44.3898 18 43.1695C18 41.9492 18 40.1186 18 39.3559C18 38.8475 18.3698 37.8305 19.8491 37.8305C20.6943 37.8305 21.434 37.8305 21.6981 37.8305M21.6981 37.8305V33C21.6981 32.4068 21.8566 31.0169 22.4906 30.2034C22.9523 29.6108 24.2828 28.0832 25.3799 26.8386M30.4151 24.6102C30.1376 24.6102 29.871 24.6102 29.6226 24.6102C29.2409 24.6102 28.8879 24.6447 28.566 24.7022M30.4151 24.6102V22.5763C30.4151 22.1525 30.7321 21.3051 32 21.3051C33.2679 21.3051 33.5849 22.1525 33.5849 22.5763V24.6102M30.4151 24.6102C31.4477 24.6102 32.631 24.6102 33.5849 24.6102M33.5849 24.6102C34.1194 24.6102 34.582 24.6102 34.9057 24.6102C35.0471 24.6102 35.2294 24.6209 35.434 24.6472M35.434 24.6472C36.1207 24.7357 37.0587 25.0003 37.5472 25.6271C37.749 25.8862 38.1348 26.3239 38.6038 26.8386M35.434 24.6472L38.6038 19.0169C38.8679 18.678 39.6604 18 40.717 18C42.0377 18 43.6226 18.5085 42.8302 20.0339C42.1962 21.2542 39.7484 25.0788 38.6038 26.8386M28.566 24.7022C27.4626 24.8991 26.7255 25.3647 26.4528 25.6271C26.1658 25.9494 25.7891 26.3743 25.3799 26.8386M28.566 24.7022L25.6604 19.0169C25.4843 18.678 24.9208 18 24.0755 18C23.2302 18 22.6667 18 22.4906 18C21.6981 18.0847 20.3245 18.6102 21.1698 20.0339C22.0151 21.4576 24.3287 25.1636 25.3799 26.8386M25.1321 32.4915V36.8136C25.1321 37.1525 25.4491 37.8305 26.717 37.8305C27.9849 37.8305 34.6415 37.8305 37.8113 37.8305C38.2516 37.8305 39.1321 37.5763 39.1321 36.5593C39.1321 35.5424 39.1321 33.4237 39.1321 32.4915C39.1321 32.0678 38.8679 31.2203 37.8113 31.2203C36.7547 31.2203 29.9748 31.2203 26.717 31.2203C26.1887 31.2203 25.1321 31.4746 25.1321 32.4915Z" stroke="white" stroke-width="1.5"/>
</svg>
