<svg width="1130" height="216" viewBox="0 0 1130 216" fill="none" xmlns="http://www.w3.org/2000/svg">
<path d="M30.2162 179.904H115.57V211.437H0.5V4.27783H29.7162V179.404V179.904H30.2162Z" stroke="url(#paint0_linear_97_277)"/>
<path d="M256.463 211.457V4.29883H285.679V211.457H256.463Z" stroke="url(#paint1_linear_97_277)"/>
<mask id="path-3-inside-1_97_277" fill="white">
<path d="M610.58 114.575C610.58 176.426 569.028 215.43 518.984 215.43C462.974 215.43 418.634 167.203 418.634 108.125C418.634 49.0472 463.234 0.297852 517.98 0.297852C542.231 0.418419 570.013 13.078 588.076 32.1878L571.239 59.2955C556.206 43.2198 535.931 33.1726 517.627 33.1726C482.523 33.1726 449.315 64.9419 449.315 108.085C449.315 148.877 479.29 182.435 520.377 182.435C553.455 182.435 578.282 160.612 578.282 128.863V128.2H518.63V98.2989H609.688C610.234 103.704 610.513 109.138 610.524 114.575"/>
</mask>
<path d="M517.98 0.297852L517.985 -0.702148H517.98V0.297852ZM588.076 32.1878L588.925 32.7155L589.332 32.0609L588.802 31.5009L588.076 32.1878ZM571.239 59.2955L570.509 59.9785L571.4 60.9316L572.089 59.8231L571.239 59.2955ZM578.282 128.2H579.282V127.2H578.282V128.2ZM518.63 128.2H517.63V129.2H518.63V128.2ZM518.63 98.2989V97.2989H517.63V98.2989H518.63ZM609.688 98.2989L610.683 98.1983L610.592 97.2989H609.688V98.2989ZM609.58 114.575C609.58 175.921 568.43 214.43 518.984 214.43V216.43C569.626 216.43 611.58 176.932 611.58 114.575H609.58ZM518.984 214.43C463.593 214.43 419.634 166.72 419.634 108.125H417.634C417.634 167.686 462.355 216.43 518.984 216.43V214.43ZM419.634 108.125C419.634 49.5187 463.864 1.29785 517.98 1.29785V-0.702148C462.604 -0.702148 417.634 48.5758 417.634 108.125H419.634ZM517.975 1.29784C541.927 1.41692 569.456 13.9442 587.349 32.8748L588.802 31.5009C570.57 12.2117 542.535 -0.580084 517.985 -0.702136L517.975 1.29784ZM587.226 31.6602L570.39 58.7678L572.089 59.8231L588.925 32.7155L587.226 31.6602ZM571.97 58.6124C556.795 42.3858 536.271 32.1726 517.627 32.1726V34.1726C535.591 34.1726 555.616 44.0539 570.509 59.9785L571.97 58.6124ZM517.627 32.1726C481.925 32.1726 448.315 64.437 448.315 108.085H450.315C450.315 65.4469 483.122 34.1726 517.627 34.1726V32.1726ZM448.315 108.085C448.315 149.366 478.677 183.435 520.377 183.435V181.435C479.903 181.435 450.315 148.387 450.315 108.085H448.315ZM520.377 183.435C553.918 183.435 579.282 161.25 579.282 128.863H577.282C577.282 159.974 552.992 181.435 520.377 181.435V183.435ZM579.282 128.863V128.2H577.282V128.863H579.282ZM578.282 127.2H518.63V129.2H578.282V127.2ZM519.63 128.2V98.2989H517.63V128.2H519.63ZM518.63 99.2989H609.688V97.2989H518.63V99.2989ZM608.693 98.3994C609.236 103.772 609.513 109.173 609.524 114.577L611.524 114.573C611.513 109.103 611.232 103.637 610.683 98.1983L608.693 98.3994Z" fill="url(#paint2_linear_97_277)" mask="url(#path-3-inside-1_97_277)"/>
<path d="M843.707 91.5916V4.29883H872.924V211.438H843.707V124.024V123.524H843.207H759.862H759.362V124.024V211.438H730.257V4.29883H759.362V91.5916V92.0916H759.862H843.207H843.707V91.5916Z" stroke="url(#paint3_linear_97_277)"/>
<path d="M1048.09 35.7112H996.999V4.29883H1129.5V35.7112H1078.41H1077.91V36.2112V211.438H1048.59V36.2112V35.7112H1048.09Z" stroke="url(#paint4_linear_97_277)"/>
<defs>
<linearGradient id="paint0_linear_97_277" x1="58.0352" y1="3.77783" x2="58.0352" y2="211.937" gradientUnits="userSpaceOnUse">
<stop stop-color="#90B5CE"/>
<stop offset="1" stop-color="#8D9BA5" stop-opacity="0.5"/>
</linearGradient>
<linearGradient id="paint1_linear_97_277" x1="271.071" y1="3.79883" x2="271.071" y2="211.957" gradientUnits="userSpaceOnUse">
<stop stop-color="#90B5CE"/>
<stop offset="1" stop-color="#8D9BA5" stop-opacity="0.5"/>
</linearGradient>
<linearGradient id="paint2_linear_97_277" x1="514.607" y1="0.297852" x2="514.607" y2="215.43" gradientUnits="userSpaceOnUse">
<stop stop-color="#90B5CE"/>
<stop offset="1" stop-color="#8D9BA5" stop-opacity="0.5"/>
</linearGradient>
<linearGradient id="paint3_linear_97_277" x1="801.591" y1="3.79883" x2="801.591" y2="211.938" gradientUnits="userSpaceOnUse">
<stop stop-color="#90B5CE"/>
<stop offset="1" stop-color="#8D9BA5" stop-opacity="0.5"/>
</linearGradient>
<linearGradient id="paint4_linear_97_277" x1="1063.25" y1="3.79883" x2="1063.25" y2="211.938" gradientUnits="userSpaceOnUse">
<stop stop-color="#90B5CE"/>
<stop offset="1" stop-color="#8D9BA5" stop-opacity="0.5"/>
</linearGradient>
</defs>
</svg>
