<svg width="399" height="242" viewBox="0 0 399 242" fill="none" xmlns="http://www.w3.org/2000/svg">
<path d="M290.889 238.008C286.885 238.15 282.924 237.152 279.471 235.131C278.134 234.434 277.008 233.395 276.21 232.12C275.413 230.846 274.971 229.382 274.932 227.881C274.932 219.653 281.908 207.685 295.861 191.977C310.252 191.741 324.564 189.809 338.498 186.223C348.677 183.729 358.296 179.357 366.856 173.334C373.658 168.118 377.05 162.412 377.031 156.217C377.086 154.356 376.705 152.509 375.917 150.821C375.129 149.133 373.957 147.651 372.493 146.493C368.866 143.854 364.431 142.553 359.947 142.81C350.601 142.81 338.45 145.773 323.496 151.7C308.86 157.442 295.567 166.118 284.443 177.189C279.652 181.949 275.738 187.509 272.88 193.617C259.005 205.613 246.864 215.366 236.689 222.386C221.792 232.8 209.95 238.008 201.162 238.008C196.595 238.008 194.311 236.08 194.311 232.254C194.311 226.96 201.461 219.106 215.76 208.692C225.853 201.452 235.085 193.094 243.279 183.778C249.941 176.092 253.559 166.252 253.454 156.102C253.454 147.145 249.33 142.676 241.082 142.695C233.74 142.695 219.287 149.676 197.722 163.639C177.359 176.726 157.82 191.041 139.215 206.505L322.224 0H299.676C285.878 15.5354 274.402 28.002 265.248 37.3999C256.095 46.7979 245.64 56.8479 233.885 67.5501C222.091 78.2714 205.094 93.2218 182.893 112.401L104.209 181.447C59.4612 218.991 29.8318 238.008 15.6675 238.008C11.6206 238.008 9.62596 236.08 9.62596 232.254C9.62596 231.16 14.0487 224.946 22.952 213.611C31.8553 202.276 39.9781 192.638 47.3204 184.583L114.182 109.006H149.679L152.714 104.346H117.766L163.439 52.8778H139.764L94.0915 104.346H73.8568L69.9833 109.006H90.218C74.4349 119.805 58.2953 131.897 41.7992 145.284C25.3031 158.672 11.37 170.726 0 181.447V185.849C33.3584 156.447 59.3745 135.541 78.0483 123.132C47.7925 153.244 27.4711 176.796 17.0839 193.789C6.69674 210.782 1.52245 222.923 1.56099 230.211C1.55983 231.747 1.87467 233.267 2.48616 234.677C3.09765 236.087 3.99283 237.358 5.11651 238.41C6.4404 239.642 8.00184 240.593 9.70619 241.207C11.4105 241.82 13.2223 242.082 15.0316 241.978C32.3756 241.978 59.9815 225.359 97.8494 192.121L230.82 76.5548L84.8414 241.863H108.516C130.45 219.923 154.198 199.857 179.511 181.879C212.523 158.326 232.613 146.55 239.782 146.55C240.467 146.542 241.148 146.669 241.783 146.926C242.419 147.183 242.996 147.564 243.482 148.046C244.339 148.774 244.879 149.806 244.985 150.923C244.985 154.577 242.701 158.748 238.134 163.495C233.567 168.242 225.097 176.01 212.812 186.798C196.643 200.665 188.568 215.05 188.588 229.952C188.588 237.777 192.721 241.719 200.96 241.719C209.198 241.719 220.934 236.828 235.503 227.075C247.578 218.824 259.161 209.881 270.191 200.291C268.623 205.186 267.795 210.286 267.734 215.424C267.734 232.935 275.443 241.7 290.86 241.719C309.292 241.413 327.25 235.851 342.603 225.694C359.658 215.011 378.457 199.447 399 179.002V174.341C356.449 216.69 320.403 237.873 290.86 237.892L290.889 238.008ZM333.526 157.339C344.53 150.146 354.166 146.541 362.433 146.521C368.648 146.521 371.77 149.168 371.77 154.462C371.77 157.741 369.053 162.057 363.647 167.35C356.755 173.505 348.654 178.169 339.857 181.044C327.447 185.181 314.407 187.128 301.324 186.798C310.542 175.485 321.36 165.562 333.439 157.339" fill="#E9F6FB"/>
</svg>
