<svg viewBox="0 0 21 22" fill="none" xmlns="http://www.w3.org/2000/svg">
<path d="M19.8354 20.2705C18.459 19.2661 16.9444 18.4857 15.3333 17.9514C14.6133 17.7126 13.8787 17.5247 13.1338 17.3883C14.2485 16.9697 15.2709 16.3145 16.1381 15.4474C17.7365 13.8488 18.6169 11.7237 18.6169 9.46308C18.6169 7.20251 17.7366 5.07742 16.1381 3.4788C14.5396 1.8804 12.4144 1 10.1538 1C7.89323 1 5.76818 1.88024 4.16955 3.4788C2.57116 5.07719 1.69091 7.20231 1.69091 9.46269C1.69091 11.7231 2.57127 13.8483 4.16971 15.447C5.03688 16.3141 6.05919 16.9692 7.17384 17.3879C6.42893 17.5243 5.69452 17.7122 4.97456 17.951C3.3637 18.4853 1.84893 19.2657 0.47241 20.2701C0.331236 20.3731 0.272366 20.5552 0.32658 20.7214C0.380798 20.8875 0.535636 21 0.710451 21H19.5972C19.7718 21 19.9268 20.8875 19.981 20.7214C20.0351 20.5553 19.9762 20.3731 19.8351 20.2703L19.8354 20.2705ZM2.49849 9.46304C2.49849 5.24155 5.93273 1.80746 10.1541 1.80746C14.3754 1.80746 17.8096 5.24171 17.8096 9.46304C17.8096 13.6844 14.3754 17.1186 10.1541 17.1186C5.93273 17.1186 2.49849 13.6844 2.49849 9.46304ZM2.04089 20.1928C4.48032 18.706 7.2597 17.926 10.154 17.926C13.0485 17.926 15.8276 18.7059 18.2671 20.1928H2.04089Z"/>
<path d="M10.1548 4.88437C7.63009 4.88437 5.57617 6.93844 5.57617 9.46303C5.57617 11.9878 7.63024 14.0417 10.1548 14.0417C12.6796 14.0417 14.7335 11.9876 14.7335 9.46303C14.7333 6.93813 12.6794 4.88437 10.1548 4.88437ZM9.10999 6.44374C10.1988 6.44374 11.0846 7.32952 11.0846 8.41834C11.0846 9.50716 10.1988 10.3929 9.10999 10.3929C8.02117 10.3929 7.13539 9.50716 7.13539 8.41834C7.13539 7.32952 8.02133 6.44374 9.10999 6.44374ZM10.1548 13.2343C8.07523 13.2343 6.38356 11.5424 6.38356 9.46283C6.38356 9.32872 6.39077 9.19626 6.40444 9.06575C6.69714 10.2884 7.79902 11.2002 9.11015 11.2002C10.6441 11.2002 11.8921 9.95215 11.8921 8.41819C11.8921 7.10707 10.9805 6.00518 9.75786 5.71248C9.88837 5.69881 10.0208 5.6916 10.1548 5.6916C12.2344 5.6916 13.9262 7.38343 13.9262 9.46303C13.9261 11.5425 12.2342 13.2343 10.1548 13.2343L10.1548 13.2343Z"/>
</svg>
