<svg width="32" height="32" viewBox="0 0 32 32" fill="none" xmlns="http://www.w3.org/2000/svg">
<path d="M23.125 20.125V20.125C24.1605 20.125 25 19.2864 25 18.2508C25 15.601 25 11.4793 25 7.75C25 4.37888 23.027 2.53683 21.1595 1.65227C20.0723 1.1373 19 2.06257 19 3.26556V20.125M23.125 20.125V29C23.125 30.1046 22.2296 31 21.125 31H21C19.8954 31 19 30.1046 19 29V20.125M23.125 20.125H19M7 1V7M7 7V11.1796C7 11.8483 7.3342 12.4728 7.8906 12.8437L8.3594 13.1563C8.9158 13.5272 9.25 14.1517 9.25 14.8204V29.125C9.25 30.1605 10.0895 31 11.125 31V31C12.1605 31 13 30.1605 13 29.125V14.8204C13 14.1517 13.3342 13.5272 13.8906 13.1563L14.3594 12.8437C14.9158 12.4728 15.25 11.8483 15.25 11.1796V7M7 7H11.125M11.125 7V1M11.125 7H15.25M15.25 7V1.75V1" stroke="#E9F6FB" stroke-width="1.5" stroke-linecap="round"/>
</svg>
