<svg width="32" height="32" viewBox="0 0 32 32" fill="none" xmlns="http://www.w3.org/2000/svg">
<rect x="13.25" y="13.25" width="5.5" height="4.5" stroke="#E9F6FB" stroke-width="1.5"/>
<rect x="3.68457" y="8.03723" width="3.93483" height="14.926" rx="1.25" stroke="#E9F6FB" stroke-width="1.5"/>
<rect x="24.3828" y="8.03723" width="3.93483" height="14.926" rx="1.25" stroke="#E9F6FB" stroke-width="1.5"/>
<rect x="19.5117" y="6.81653" width="5.15224" height="17.3671" rx="1.25" stroke="#E9F6FB" stroke-width="1.5"/>
<rect x="7.33594" y="6.81653" width="5.15224" height="17.3671" rx="1.25" stroke="#E9F6FB" stroke-width="1.5"/>
<path d="M3.75 14V13.25H3H2.5C1.80964 13.25 1.25 13.8096 1.25 14.5V16.5C1.25 17.1904 1.80964 17.75 2.5 17.75H3H3.75V17V14Z" stroke="#E9F6FB" stroke-width="1.5"/>
<path d="M29 13.25H28.25V14V17V17.75H29H29.5C30.1904 17.75 30.75 17.1904 30.75 16.5V14.5C30.75 13.8096 30.1904 13.25 29.5 13.25H29Z" stroke="#E9F6FB" stroke-width="1.5"/>
</svg>
