<svg width="32" height="32" viewBox="0 0 32 32" fill="none" xmlns="http://www.w3.org/2000/svg">
<path d="M10.8491 18.024C10.8491 18.3752 10.5695 18.6461 10.2418 18.6461C9.91432 18.6461 9.63477 18.3754 9.63477 18.024C9.63477 17.6723 9.9144 17.4016 10.2418 17.4016C10.5694 17.4016 10.8491 17.6724 10.8491 18.024Z" stroke="#E9F6FB" stroke-width="1.5"/>
<path d="M22.5669 18.024C22.5669 18.3753 22.2873 18.6461 21.9596 18.6461C21.6321 18.6461 21.3525 18.3754 21.3525 18.024C21.3525 17.6723 21.6322 17.4016 21.9596 17.4016C22.2872 17.4016 22.5669 17.6724 22.5669 18.024Z" stroke="#E9F6FB" stroke-width="1.5"/>
<path d="M7.76378 7.12389L7.76462 7.123C8.80557 6.01512 10.2308 5.36533 11.6347 4.99567C13.0339 4.62725 14.3535 4.5526 15.1142 4.5526H15.8544H15.9777C15.9847 4.5526 16.0032 4.55172 16.0323 4.55035C16.3248 4.53654 17.6939 4.4719 19.3801 4.73105C21.2536 5.01898 23.3451 5.68558 24.6828 7.12081L24.6857 7.12387C26.4474 8.99278 27.6085 11.6973 28.3276 14.2003C29.0429 16.6894 29.291 18.8708 29.2932 19.6355C29.2038 22.6805 28.0536 25.0491 26.0408 26.6715C24.008 28.31 21.0161 29.25 17.1499 29.25H15.2992C11.4327 29.25 8.42503 28.3099 6.38443 26.6708C4.36414 25.048 3.21575 22.6805 3.15626 19.6389C3.15769 18.8459 3.40565 16.6615 4.12162 14.1773C4.84039 11.6834 6.00128 8.99356 7.76378 7.12389Z" stroke="#E9F6FB" stroke-width="1.5"/>
<path d="M25.7075 6.62712L25.7066 6.62625C24.3953 5.40638 24.2968 3.62698 25.1983 2.62427L25.2113 2.6098L25.2235 2.59467C25.594 2.13682 26.3328 1.80934 27.2548 1.75H27.4167C28.2096 1.75 28.9611 2.04965 29.5131 2.49979C30.04 2.99805 30.2842 3.75105 30.2457 4.5831C30.2065 5.42732 29.8773 6.25484 29.3884 6.79862L29.386 6.80134C28.968 7.27089 28.4747 7.50125 27.8559 7.55018C27.1961 7.59323 26.4048 7.27801 25.7075 6.62712Z" stroke="#E9F6FB" stroke-width="1.5"/>
<path d="M6.86559 3.07608L6.87187 3.08384L6.87836 3.09144C7.73855 4.0986 7.63141 5.89291 6.37654 7.11339C5.69129 7.75077 4.89904 8.07851 4.10027 8.03106L4.07815 8.02974L4.05599 8.02974C3.51409 8.02959 3.02076 7.78448 2.56604 7.3294C2.08866 6.79087 1.77761 5.97554 1.75174 5.13852C1.7258 4.29957 1.9865 3.53387 2.52871 3.03056C3.06447 2.53863 3.80657 2.23151 4.67266 2.23151H4.83448C5.75614 2.29061 6.49507 2.61809 6.86559 3.07608Z" stroke="#E9F6FB" stroke-width="1.5"/>
<path d="M16.4758 21.9439C18.571 21.9439 19.0948 20.66 19.0948 20.0181H13.3807C13.3807 20.981 13.8568 21.9439 16.4758 21.9439ZM16.4758 21.9439V23.1476M16.4758 23.1476C16.8726 24.0303 18.1424 25.555 20.0471 24.592M16.4758 23.1476C16.079 24.0303 14.8568 25.555 13.1426 24.592" stroke="#E9F6FB" stroke-width="1.5"/>
</svg>
