<svg width="80" height="100" viewBox="0 0 80 100" fill="none" xmlns="http://www.w3.org/2000/svg">
<path d="M80 40C80 70 40 100 40 100C40 100 0 70 0 40C0 29.3913 4.21427 19.2172 11.7157 11.7157C19.2172 4.21427 29.3913 0 40 0C50.6087 0 60.7828 4.21427 68.2843 11.7157C75.7857 19.2172 80 29.3913 80 40Z" fill="#0CAECC"/>
<g clip-path="url(#clip0_1711_2624)">
<path d="M41.6002 32.9307C41.4636 32.9354 41.3283 32.9021 41.2105 32.8348C41.1648 32.8116 41.1264 32.7769 41.0992 32.7345C41.072 32.692 41.0569 32.6432 41.0556 32.5932C41.0556 32.3191 41.2937 31.9203 41.7699 31.3969C42.2612 31.389 42.7497 31.3246 43.2253 31.2051C43.5728 31.122 43.9011 30.9764 44.1933 30.7757C44.4255 30.6018 44.5413 30.4117 44.5406 30.2053C44.5425 30.1433 44.5295 30.0817 44.5026 30.0255C44.4757 29.9692 44.4357 29.9199 44.3857 29.8813C44.2619 29.7934 44.1106 29.75 43.9575 29.7586C43.6385 29.7586 43.2237 29.8573 42.7132 30.0548C42.2136 30.2461 41.7599 30.5352 41.3802 30.9041C41.2167 31.0627 41.0831 31.248 40.9855 31.4515C40.5119 31.8512 40.0975 32.1762 39.7501 32.4101C39.2416 32.7571 38.8374 32.9307 38.5375 32.9307C38.3816 32.9307 38.3036 32.8664 38.3036 32.7389C38.3036 32.5625 38.5477 32.3008 39.0357 31.9538C39.3802 31.7126 39.6954 31.4341 39.9751 31.1237C40.2025 30.8675 40.326 30.5397 40.3224 30.2015C40.3224 29.903 40.1817 29.7541 39.9001 29.7547C39.6495 29.7547 39.1561 29.9874 38.42 30.4526C37.7249 30.8887 37.058 31.3657 36.4229 31.881L42.6698 25H41.9002C41.4292 25.5177 41.0375 25.9331 40.725 26.2462C40.4125 26.5594 40.0557 26.8942 39.6544 27.2508C39.2518 27.6081 38.6717 28.1062 37.9139 28.7453L35.228 31.046C33.7006 32.297 32.6892 32.9307 32.2057 32.9307C32.0676 32.9307 31.9995 32.8664 31.9995 32.7389C31.9995 32.7025 32.1504 32.4954 32.4544 32.1177C32.7583 31.74 33.0355 31.4189 33.2862 31.1505L35.5684 28.6322H36.7801L36.8837 28.4769H35.6908L37.2498 26.7619H36.4417L34.8827 28.4769H34.192L34.0597 28.6322H34.7504C34.2117 28.992 33.6608 29.3949 33.0977 29.841C32.5346 30.2871 32.059 30.6888 31.6709 31.046V31.1927C32.8096 30.213 33.6976 29.5164 34.335 29.1029C33.3023 30.1062 32.6086 30.891 32.254 31.4573C31.8995 32.0235 31.7229 32.428 31.7242 32.6709C31.7241 32.722 31.7349 32.7727 31.7558 32.8197C31.7766 32.8667 31.8072 32.909 31.8455 32.9441C31.8907 32.9851 31.944 33.0168 32.0022 33.0372C32.0604 33.0577 32.1222 33.0664 32.184 33.0629C32.776 33.0629 33.7183 32.5092 35.0109 31.4017L39.5498 27.5509L34.5669 33.0591H35.375C36.1237 32.328 36.9344 31.6594 37.7984 31.0604C38.9252 30.2756 39.611 29.8832 39.8557 29.8832C39.8791 29.8829 39.9024 29.8872 39.924 29.8957C39.9457 29.9043 39.9654 29.917 39.982 29.9331C40.0113 29.9573 40.0297 29.9917 40.0333 30.0289C40.0333 30.1507 39.9554 30.2897 39.7995 30.4478C39.6436 30.606 39.3545 30.8648 38.9351 31.2243C38.3832 31.6864 38.1076 32.1657 38.1082 32.6622C38.1082 32.923 38.2493 33.0543 38.5306 33.0543C38.8118 33.0543 39.2124 32.8913 39.7097 32.5664C40.1218 32.2914 40.5172 31.9935 40.8937 31.6739C40.8402 31.837 40.8119 32.0069 40.8099 32.1781C40.8099 32.7616 41.073 33.0537 41.5992 33.0543C42.2284 33.0441 42.8414 32.8588 43.3655 32.5204C43.9476 32.1644 44.5893 31.6458 45.2905 30.9645V30.8092C43.8381 32.2203 42.6077 32.9262 41.5992 32.9268L41.6002 32.9307ZM43.0556 30.2427C43.4312 30.003 43.7601 29.8829 44.0423 29.8822C44.2545 29.8822 44.3611 29.9704 44.3611 30.1468C44.3611 30.2561 44.2683 30.3999 44.0838 30.5763C43.8485 30.7814 43.572 30.9368 43.2717 31.0326C42.8481 31.1704 42.403 31.2353 41.9564 31.2243C42.2711 30.8473 42.6403 30.5167 43.0527 30.2427" fill="#E9F6FB"/>
<path d="M16.163 47.2812V48.8332H10V38.9028H11.6044V47.2812H16.163Z" fill="#E9F6FB"/>
<path d="M25.1952 38.9038H23.5908V48.8341H25.1952V38.9038Z" fill="#E9F6FB"/>
<path d="M42.4203 44.1887C42.4203 47.1393 40.214 49 37.5568 49C34.5828 49 32.2285 46.6993 32.2285 43.881C32.2285 41.0626 34.5966 38.737 37.5035 38.737C38.7912 38.7428 40.2663 39.3467 41.2254 40.2583L40.3314 41.5515C39.5332 40.7846 38.4567 40.3053 37.4848 40.3053C35.6208 40.3053 33.8576 41.8209 33.8576 43.879C33.8576 45.825 35.4492 47.4259 37.6308 47.4259C39.3871 47.4259 40.7054 46.3849 40.7054 44.8703V44.8386H37.538V43.4122H42.373C42.402 43.6701 42.4168 43.9293 42.4174 44.1887" fill="#E9F6FB"/>
<path d="M56.3763 38.9038V48.8332H54.7719V44.6392H50.3465V48.8332H48.748V38.9038H50.3465V43.092H54.7719V38.9038H56.3763Z" fill="#E9F6FB"/>
<path d="M69.9997 40.4501H67.2606V48.8332H65.6503V40.4501H62.9111V38.9038H69.9997V40.4501Z" fill="#E9F6FB"/>
</g>
<defs>
<clipPath id="clip0_1711_2624">
<rect width="60" height="24" fill="white" transform="translate(10 25)"/>
</clipPath>
</defs>
</svg>
