<svg width="66" height="32" viewBox="0 0 66 32" fill="none" xmlns="http://www.w3.org/2000/svg">
<path d="M34.7601 11.5915C34.6098 11.5967 34.4611 11.5606 34.3314 11.4877C34.2812 11.4625 34.239 11.425 34.209 11.379C34.179 11.333 34.1625 11.2802 34.161 11.226C34.161 10.929 34.423 10.497 34.9468 9.92993C35.4872 9.9214 36.0246 9.85169 36.5478 9.72223C36.93 9.63221 37.2911 9.4744 37.6125 9.25698C37.868 9.06867 37.9953 8.8627 37.9946 8.63907C37.9967 8.57192 37.9824 8.50522 37.9528 8.44428C37.9232 8.38335 37.8792 8.32986 37.8242 8.28806C37.688 8.19282 37.5215 8.14583 37.3531 8.15513C37.0022 8.15513 36.546 8.2621 35.9845 8.47603C35.4349 8.6833 34.9358 8.99649 34.5181 9.39614C34.3382 9.56796 34.1913 9.76867 34.084 9.98913C33.563 10.4222 33.1071 10.7742 32.725 11.0276C32.1657 11.4036 31.7211 11.5915 31.3911 11.5915C31.2196 11.5915 31.1339 11.522 31.1339 11.3838C31.1339 11.1928 31.4023 10.9092 31.9392 10.5333C32.3182 10.272 32.6648 9.97025 32.9725 9.63396C33.2227 9.35651 33.3585 9.00132 33.3546 8.63492C33.3546 8.3116 33.1997 8.15028 32.89 8.15098C32.6143 8.15098 32.0716 8.40299 31.2619 8.90701C30.4973 9.37941 29.7637 9.89617 29.0651 10.4544L35.9367 3H35.0901C34.572 3.56079 34.1411 4.01081 33.7974 4.35005C33.4537 4.6893 33.0612 5.05208 32.6198 5.43841C32.1769 5.82542 31.5387 6.3651 30.7051 7.05743L27.7507 9.54984C26.0705 10.9051 24.958 11.5915 24.4262 11.5915C24.2742 11.5915 24.1993 11.522 24.1993 11.3838C24.1993 11.3444 24.3654 11.1201 24.6997 10.7109C25.034 10.3017 25.339 9.95382 25.6147 9.66304L28.1252 6.93489H29.458L29.572 6.76665H28.2598L29.9747 4.90877H29.0857L27.3708 6.76665H26.6111L26.4656 6.93489H27.2254C26.6328 7.32467 26.0268 7.76119 25.4074 8.24444C24.788 8.72769 24.2648 9.16282 23.8379 9.54984V9.70873C25.0904 8.64738 26.0673 7.89274 26.7684 7.4448C25.6324 8.53176 24.8694 9.38195 24.4794 9.99536C24.0893 10.6088 23.8951 11.047 23.8965 11.3101C23.8965 11.3655 23.9083 11.4204 23.9312 11.4713C23.9542 11.5222 23.9878 11.5681 24.03 11.6061C24.0797 11.6505 24.1383 11.6849 24.2023 11.707C24.2663 11.7292 24.3344 11.7386 24.4023 11.7349C25.0535 11.7349 26.0901 11.1349 27.5119 9.93512L32.5047 5.76346L27.0235 11.7307H27.9124C28.736 10.9387 29.6277 10.2144 30.5781 9.56542C31.8177 8.71523 32.572 8.29013 32.8412 8.29013C32.8669 8.28982 32.8925 8.29444 32.9163 8.30371C32.9402 8.31299 32.9619 8.32673 32.9801 8.34414C33.0123 8.37042 33.0326 8.40767 33.0366 8.44799C33.0366 8.57988 32.9508 8.73046 32.7793 8.90181C32.6078 9.07317 32.2898 9.35356 31.8285 9.743C31.2214 10.2436 30.9182 10.7628 30.919 11.3008C30.919 11.5832 31.0742 11.7255 31.3835 11.7255C31.6928 11.7255 32.1335 11.549 32.6805 11.1969C33.1339 10.8991 33.5688 10.5762 33.983 10.2301C33.9241 10.4068 33.893 10.5909 33.8908 10.7763C33.8908 11.4084 34.1802 11.7248 34.7591 11.7255C35.4512 11.7145 36.1254 11.5137 36.7019 11.1471C37.3423 10.7614 38.0481 10.1996 38.8195 9.46157V9.29333C37.2218 10.822 35.8683 11.5867 34.7591 11.5874L34.7601 11.5915ZM36.3611 8.67957C36.7743 8.41995 37.1361 8.28979 37.4465 8.2891C37.6798 8.2891 37.7971 8.38464 37.7971 8.57572C37.7971 8.69411 37.695 8.84989 37.4921 9.04097C37.2333 9.26316 36.9291 9.43148 36.5988 9.5353C36.1328 9.68462 35.6432 9.75491 35.152 9.743C35.4981 9.33461 35.9043 8.9764 36.3578 8.67957" fill="#E9F6FB"/>
<path d="M6.77933 27.1379V28.8193H0V18.0614H1.76484V27.1379H6.77933Z" fill="#E9F6FB"/>
<path d="M16.715 18.0625H14.9502V28.8204H16.715V18.0625Z" fill="#E9F6FB"/>
<path d="M35.6621 23.7878C35.6621 26.9843 33.2352 29 30.3123 29C27.0409 29 24.4512 26.5076 24.4512 23.4544C24.4512 20.4012 27.0561 17.8818 30.2537 17.8818C31.6701 17.888 33.2927 18.5423 34.3477 19.5299L33.3644 20.9308C32.4863 20.1 31.3021 19.5808 30.233 19.5808C28.1827 19.5808 26.2431 21.2226 26.2431 23.4523C26.2431 25.5605 27.9939 27.2948 30.3937 27.2948C32.3257 27.2948 33.7757 26.167 33.7757 24.5261V24.4919H30.2916V22.9466H35.6101C35.642 23.2259 35.6583 23.5067 35.6589 23.7878" fill="#E9F6FB"/>
<path d="M51.0142 18.0625V28.8193H49.2493V24.2759H44.3814V28.8193H42.623V18.0625H44.3814V22.5997H49.2493V18.0625H51.0142Z" fill="#E9F6FB"/>
<path d="M65.9996 19.7376H62.9865V28.8193H61.2152V19.7376H58.2021V18.0625H65.9996V19.7376Z" fill="#E9F6FB"/>
</svg>
