<svg viewBox="0 0 16 16" fill="none" xmlns="http://www.w3.org/2000/svg">
<path d="M13.3346 6.66683C13.3346 10.6668 8.0013 14.6668 8.0013 14.6668C8.0013 14.6668 2.66797 10.6668 2.66797 6.66683C2.66797 5.25234 3.22987 3.89579 4.23007 2.89559C5.23026 1.8954 6.58681 1.3335 8.0013 1.3335C9.41579 1.3335 10.7723 1.8954 11.7725 2.89559C12.7727 3.89579 13.3346 5.25234 13.3346 6.66683V6.66683Z" stroke="url(#paint0_linear_2203_1820)" stroke-width="1.33333" stroke-linecap="round" stroke-linejoin="round"/>
<path d="M8 8.66675C9.10457 8.66675 10 7.77132 10 6.66675C10 5.56218 9.10457 4.66675 8 4.66675C6.89543 4.66675 6 5.56218 6 6.66675C6 7.77132 6.89543 8.66675 8 8.66675Z" stroke="url(#paint1_linear_2203_1820)" stroke-width="1.33333" stroke-linecap="round" stroke-linejoin="round"/>
<defs>
<linearGradient id="paint0_linear_2203_1820" x1="13.3346" y1="1.3335" x2="-0.477598" y2="9.0297" gradientUnits="userSpaceOnUse">
<stop stop-color="#A2BDCA"/>
<stop offset="1" stop-color="#BCD6DF"/>
</linearGradient>
<linearGradient id="paint1_linear_2203_1820" x1="10" y1="4.66675" x2="5.4295" y2="7.85011" gradientUnits="userSpaceOnUse">
<stop stop-color="#A2BDCA"/>
<stop offset="1" stop-color="#BCD6DF"/>
</linearGradient>
</defs>
</svg>
