<svg width="32" height="32" viewBox="0 0 32 32" fill="none" xmlns="http://www.w3.org/2000/svg">
<path d="M5.69811 24.3898H26.566M5.69811 24.3898C5.69811 24.7772 5.69811 25.9436 5.69811 27.6949M5.69811 24.3898V20.8305M26.566 24.3898C26.566 23.4942 26.566 22.1757 26.566 20.8305M26.566 24.3898V27.6949M26.566 20.8305C26.566 18.8663 26.566 16.845 26.566 16C26.566 14.5763 26.0377 13.5424 25.7736 13.2034C24.9934 12.3947 23.6078 10.9404 22.6038 9.83858M26.566 20.8305H28.4151C28.9434 20.8305 30 21.2373 30 22.8644C30 24.4915 30 26.0847 30 26.678C30 27.0169 29.683 27.6949 28.4151 27.6949C27.1472 27.6949 26.6541 27.6949 26.566 27.6949M26.566 27.6949V27.9492C26.566 28.9661 25.8792 31 23.1321 31C20.3849 31 11.9497 31 8.07547 31C7.28302 30.9153 5.69811 30.2373 5.69811 28.2034C5.69811 28.0289 5.69811 27.8593 5.69811 27.6949M5.69811 27.6949H3.84906C3.2327 27.6949 2 27.3898 2 26.1695C2 24.9492 2 23.1186 2 22.3559C2 21.8475 2.36981 20.8305 3.84906 20.8305C4.69434 20.8305 5.43396 20.8305 5.69811 20.8305M5.69811 20.8305V16C5.69811 15.4068 5.8566 14.0169 6.49057 13.2034C6.9523 12.6108 8.28281 11.0832 9.37987 9.83858M14.4151 7.61017C14.1376 7.61017 13.871 7.61017 13.6226 7.61017C13.2409 7.61017 12.8879 7.64474 12.566 7.70217M14.4151 7.61017V5.57627C14.4151 5.15254 14.7321 4.30508 16 4.30508C17.2679 4.30508 17.5849 5.15254 17.5849 5.57627V7.61017M14.4151 7.61017C15.4477 7.61017 16.631 7.61017 17.5849 7.61017M17.5849 7.61017C18.1194 7.61017 18.582 7.61017 18.9057 7.61017C19.0471 7.61017 19.2294 7.62088 19.434 7.64723M19.434 7.64723C20.1207 7.73567 21.0587 8.00028 21.5472 8.62712C21.749 8.88616 22.1348 9.3239 22.6038 9.83858M19.434 7.64723L22.6038 2.01695C22.8679 1.67797 23.6604 1 24.717 1C26.0377 1 27.6226 1.50847 26.8302 3.0339C26.1962 4.25424 23.7484 8.07883 22.6038 9.83858M12.566 7.70217C11.4626 7.89907 10.7255 8.36468 10.4528 8.62712C10.1658 8.94943 9.78907 9.37432 9.37987 9.83858M12.566 7.70217L9.66038 2.01695C9.48428 1.67797 8.92075 1 8.07547 1C7.23019 1 6.66667 1 6.49057 1C5.69811 1.08475 4.32453 1.61017 5.16981 3.0339C6.01509 4.45763 8.32872 8.16357 9.37987 9.83858M9.13208 15.4915V19.8136C9.13208 20.1525 9.44906 20.8305 10.717 20.8305C11.9849 20.8305 18.6415 20.8305 21.8113 20.8305C22.2516 20.8305 23.1321 20.5763 23.1321 19.5593C23.1321 18.5424 23.1321 16.4237 23.1321 15.4915C23.1321 15.0678 22.8679 14.2203 21.8113 14.2203C20.7547 14.2203 13.9748 14.2203 10.717 14.2203C10.1887 14.2203 9.13208 14.4746 9.13208 15.4915Z" stroke="#E9F6FB" stroke-width="1.5"/>
</svg>
