<svg width="32" height="32" viewBox="0 0 32 32" fill="none" xmlns="http://www.w3.org/2000/svg">
<path d="M8 2L4 7.4V26.3C4 27.0161 4.28095 27.7028 4.78105 28.2092C5.28115 28.7155 5.95942 29 6.66667 29H25.3333C26.0406 29 26.7189 28.7155 27.219 28.2092C27.719 27.7028 28 27.0161 28 26.3V7.4L24 2H8Z" stroke="#E9F6FB" stroke-width="1.5" stroke-linecap="round" stroke-linejoin="round"/>
<path d="M4 7.3999H28" stroke="#E9F6FB" stroke-width="1.5" stroke-linecap="round" stroke-linejoin="round"/>
<path d="M21.3327 12.8002C21.3327 14.2323 20.7708 15.6059 19.7706 16.6185C18.7704 17.6312 17.4138 18.2002 15.9993 18.2002C14.5849 18.2002 13.2283 17.6312 12.2281 16.6185C11.2279 15.6059 10.666 14.2323 10.666 12.8002" stroke="#E9F6FB" stroke-width="1.5" stroke-linecap="round" stroke-linejoin="round"/>
</svg>
