<svg width="83" height="111" viewBox="0 0 83 111" fill="none" xmlns="http://www.w3.org/2000/svg">
<path d="M11.7604 57.696L71.3767 73.6735M11.7604 57.696L35.9805 85.2524L71.3767 73.6735M11.7604 57.696L47.3987 46.4306L71.3767 73.6735" stroke="#0E0F10" stroke-width="1.5"/>
<path d="M49.8817 35.9122L33.9043 95.5285M49.8817 35.9122L21.5174 60.5128L33.9043 95.5285M49.8817 35.9122L61.4811 71.1699L33.9043 95.5285" stroke="#0E0F10" stroke-width="1.5"/>
<path d="M62.25 65.7917C62.25 76.959 52.9766 86.0417 41.5 86.0417C30.0234 86.0417 20.75 76.959 20.75 65.7917C20.75 54.6245 30.0234 45.5417 41.5 45.5417C52.9766 45.5417 62.25 54.6245 62.25 65.7917Z" fill="#5CB5E0" stroke="#0E0F10" stroke-width="1.5"/>
<path d="M39.7655 59.173L33.7893 67.9475C32.2304 70.2365 34.3406 73.2351 37.0214 72.5404L37.5493 72.4036C38.5795 72.1366 39.6739 72.4354 40.4256 73.1887L40.8105 73.5744C42.7665 75.5348 46.1076 74.0242 45.9278 71.2607L45.2387 60.667C45.0534 57.8193 41.3719 56.8144 39.7655 59.173Z" fill="#E9F6FB" stroke="#0E0F10" stroke-width="1.5"/>
<path d="M63.1076 18.6285L60.7661 19.8596C59.8907 18.1814 58.6705 17.1191 57.1053 16.6726C55.7843 16.2958 54.5414 16.4286 53.3764 17.0712C52.2177 17.7156 51.4499 18.6983 51.0731 20.0193C50.8106 20.9396 50.7778 21.8137 50.9749 22.6418C51.172 23.4698 51.5788 24.1917 52.1952 24.8076C52.8116 25.4235 53.5674 25.8592 54.4627 26.1145C55.2265 26.3324 55.9648 26.3907 56.6775 26.2893C57.3919 26.1817 58.2351 25.8603 59.207 25.3251L60.4608 27.6935C59.1564 28.3979 57.9949 28.8147 56.9764 28.9439C55.9596 29.0668 54.869 28.9622 53.7045 28.63C51.5571 28.0175 49.9917 26.8363 49.0081 25.0866C48.0326 23.3325 47.8485 21.3911 48.4557 19.2625C48.8486 17.8851 49.5076 16.7496 50.4328 15.8558C51.3643 14.9638 52.502 14.3575 53.8459 14.0367C55.1962 13.7178 56.5412 13.7494 57.8809 14.1316C59.0204 14.4567 60.0472 15.0102 60.9615 15.7923C61.8821 16.5762 62.5974 17.5216 63.1076 18.6285Z" fill="black"/>
</svg>
