<svg width="195" height="195" viewBox="0 0 195 195" fill="none" xmlns="http://www.w3.org/2000/svg">
<path d="M195.001 195H33.4268V79.876H0.00195312L195.001 0V195ZM65.8047 174.827H71.999L73.5293 170.854H81.748L83.3027 174.827H89.6211L80.5635 152.413H74.8867L65.8047 174.827ZM92.6221 174.827H98.4785V168.438H101.37C106.614 168.437 110.46 165.633 110.46 160.36C110.46 155.322 107.005 152.413 101.663 152.413H92.6221V174.827ZM113.438 174.827H119.392V152.413H113.438V174.827ZM122.369 157.867H128.989V174.827H135.1V157.867H141.72V152.413H122.369V157.867ZM140.231 174.827H146.433L147.965 170.854H156.167L157.724 174.827H164.048L154.98 152.413H149.298L140.231 174.827ZM167.024 174.827H183.398V169.373H172.98V152.413H167.024V174.827ZM54.9414 152.413C48.3394 152.413 43.4757 157.366 43.4756 163.645C43.4756 170.148 48.4906 174.851 54.6895 174.826C59.5025 174.826 62.2744 172.75 64.3154 169.948L59.7803 166.747C58.47 168.323 57.134 169.373 54.8662 169.373C51.8172 169.373 49.6749 166.847 49.6748 163.62C49.6748 160.418 51.8171 157.866 54.8662 157.866C56.9576 157.866 58.4196 158.817 59.6543 160.368L64.0635 156.966C62.1484 154.314 59.3764 152.413 54.9414 152.413ZM80.0693 166.058H75.3066L77.7002 159.738L80.0693 166.058ZM154.462 166.058H149.693L152.09 159.738L154.462 166.058ZM101.198 157.634C103.305 157.634 104.58 158.646 104.58 160.568C104.58 162.412 103.305 163.555 101.223 163.555H98.4541V157.634H101.198ZM89.1035 92.6436V125.327C88.9686 128.205 89.673 131.061 91.1318 133.542C92.5908 136.023 94.7411 138.023 97.3164 139.295C101.603 141.65 107.297 142.828 114.398 142.828L114.434 142.793C121.723 142.793 127.325 141.788 131.235 139.778C136.476 137.062 139.096 132.405 139.096 125.81V92.6787H126.871V123.301C126.871 126.755 126.057 129.355 124.431 131.098C122.471 133.159 118.903 134.184 113.706 134.184C111.011 134.303 108.337 133.649 105.998 132.299C103.194 130.532 101.786 127.682 101.786 123.772V92.6436H89.1035ZM173.755 92.7021V105.658H160.556C158.507 105.688 156.487 106.154 154.629 107.028C152.648 107.961 150.903 109.332 149.526 111.04C146.508 114.541 144.879 119.036 144.951 123.666C144.853 128.371 146.281 132.981 149.021 136.799C151.978 140.819 155.698 142.828 160.18 142.828H183.363L183.398 92.7021H173.755ZM44.9648 92.6436V142.781H68.207L68.1953 142.793C70.4149 142.807 72.6032 142.265 74.5615 141.216C76.5198 140.167 78.1873 138.644 79.4121 136.786C82.1228 133.024 83.5287 128.473 83.4131 123.831C83.5125 119.306 82.0811 114.88 79.3535 111.276C78.116 109.51 76.4699 108.071 74.5576 107.082C72.6452 106.093 70.5221 105.585 68.3711 105.6H55.043V92.6436H44.9648ZM64.1592 113.444C65.399 113.434 66.6233 113.725 67.7266 114.293C68.8298 114.861 69.7804 115.69 70.4951 116.707C72.1569 118.849 73.0464 121.494 73.0176 124.209C73.0506 126.849 72.2268 129.43 70.6709 131.559C70.0127 132.553 69.1173 133.367 68.0664 133.927C67.0155 134.486 65.8418 134.773 64.6523 134.762H55.043V113.444H64.1592ZM173.531 113.481V134.682H163.875C162.658 134.708 161.455 134.422 160.379 133.852C159.303 133.281 158.391 132.443 157.728 131.419C156.176 129.234 155.354 126.612 155.381 123.929C155.329 121.266 156.219 118.67 157.892 116.603C158.641 115.612 159.613 114.813 160.729 114.271C161.844 113.728 163.071 113.458 164.31 113.481H173.531Z" fill="#E9F6FB"/>
</svg>
