<svg width="84" height="69" viewBox="0 0 84 69" fill="none" xmlns="http://www.w3.org/2000/svg">
<g clip-path="url(#clip0_443_2095)">
<path d="M35.9297 0H34.0213L24.6926 9.22419C24.1952 9.71601 23.8567 10.3425 23.7202 11.0244C23.5836 11.7063 23.655 12.4129 23.9254 13.0547C24.1957 13.6965 24.6529 14.2446 25.2389 14.6296C25.8249 15.0147 26.5135 15.2193 27.2174 15.2176C27.6852 15.2179 28.1485 15.1271 28.5807 14.9504C29.013 14.7736 29.4057 14.5144 29.7362 14.1875L32.3618 11.5946V31.875H13.6332C11.9319 31.8703 10.3017 31.2 9.09974 30.0109C7.89779 28.8217 7.22204 27.2106 7.22048 25.5304V7.0235H16.4722C17.4846 7.02698 18.4878 6.83337 19.4244 6.45375C20.361 6.07414 21.2127 5.51595 21.9307 4.8111L26.8144 0H3.65257C2.70944 0 1.80494 0.369987 1.13805 1.02857C0.471162 1.68715 0.0965071 2.58037 0.0965071 3.51175V27.7487C0.0996378 30.709 1.29104 33.5474 3.40963 35.6418C5.52821 37.7361 8.40115 38.9157 11.3988 38.9219H35.9297C36.8728 38.9219 37.7773 38.5519 38.4442 37.8933C39.1111 37.2347 39.4858 36.3415 39.4858 35.4101V3.51175C39.4858 2.58037 39.1111 1.68715 38.4442 1.02857C37.7773 0.369987 36.8728 0 35.9297 0V0Z" fill="#E9F6FB"/>
<path d="M66.8807 0H44.596V34.2103C44.596 35.4521 45.0956 36.6431 45.9848 37.5212C46.874 38.3993 48.08 38.8926 49.3375 38.8926H68.6943C72.7472 38.8864 76.6323 37.2933 79.4976 34.4626C82.363 31.6319 83.9747 27.7946 83.9794 23.7921V16.9091C83.9747 12.43 82.1725 8.13533 78.9675 4.96594C75.7626 1.79655 71.4163 0.0108391 66.8807 0ZM76.8673 23.8214C76.8657 25.9558 76.0068 28.0025 74.479 29.5123C72.9512 31.0222 70.8794 31.8719 68.718 31.875H51.7259V7.0235H66.8807C69.5283 7.0266 72.0666 8.06664 73.9388 9.91548C75.811 11.7643 76.8641 14.271 76.8673 16.8857V23.8214Z" fill="#E9F6FB"/>
<path d="M35.9297 0H34.0213L24.6926 9.22419C24.1952 9.71601 23.8567 10.3425 23.7202 11.0244C23.5836 11.7063 23.655 12.4129 23.9254 13.0547C24.1957 13.6965 24.6529 14.2446 25.2389 14.6296C25.8249 15.0147 26.5135 15.2193 27.2174 15.2176C27.6852 15.2179 28.1485 15.1271 28.5807 14.9504C29.013 14.7736 29.4057 14.5144 29.7362 14.1875L32.3618 11.5946V31.875H13.6332C11.9319 31.8703 10.3017 31.2 9.09974 30.0109C7.89779 28.8217 7.22204 27.2106 7.22048 25.5304V7.0235H16.4722C17.4846 7.02698 18.4878 6.83337 19.4244 6.45375C20.361 6.07414 21.2127 5.51595 21.9307 4.8111L26.8144 0H3.65257C2.70944 0 1.80494 0.369987 1.13805 1.02857C0.471162 1.68715 0.0965071 2.58037 0.0965071 3.51175V27.7487C0.0996378 30.709 1.29104 33.5474 3.40963 35.6418C5.52821 37.7361 8.40115 38.9157 11.3988 38.9219H35.9297C36.8728 38.9219 37.7773 38.5519 38.4442 37.8933C39.1111 37.2347 39.4858 36.3415 39.4858 35.4101V3.51175C39.4858 2.58037 39.1111 1.68715 38.4442 1.02857C37.7773 0.369987 36.8728 0 35.9297 0V0Z" fill="#E9F6FB"/>
<path d="M66.8807 0H44.596V34.2103C44.596 35.4521 45.0956 36.6431 45.9848 37.5212C46.874 38.3993 48.08 38.8926 49.3375 38.8926H68.6943C72.7472 38.8864 76.6323 37.2933 79.4976 34.4626C82.363 31.6319 83.9747 27.7946 83.9794 23.7921V16.9091C83.9747 12.43 82.1725 8.13533 78.9675 4.96594C75.7626 1.79655 71.4163 0.0108391 66.8807 0ZM76.8673 23.8214C76.8657 25.9558 76.0068 28.0025 74.479 29.5123C72.9512 31.0222 70.8794 31.8719 68.718 31.875H51.7259V7.0235H66.8807C69.5283 7.0266 72.0666 8.06664 73.9388 9.91548C75.811 11.7643 76.8641 14.271 76.8673 16.8857V23.8214Z" fill="#E9F6FB"/>
<path d="M12.4106 62.9489C10.9015 63.7484 9.20963 64.1515 7.49735 64.1195C2.55443 64.1429 0 61.152 0 57.0199C0 52.9755 3.0345 49.6803 7.86481 49.6803C9.19562 49.6453 10.5205 49.868 11.7646 50.3359V53.3326C10.5902 52.7133 9.27917 52.3896 7.94779 52.3902C4.8718 52.4019 3.55606 54.5617 3.55606 56.9789C3.55606 59.6069 5.24518 61.4271 7.93001 61.4271C9.20663 61.4294 10.4564 61.0654 11.5276 60.3795L12.4106 62.9489Z" fill="#E9F6FB"/>
<path d="M13.6268 50.751C13.6314 50.5035 13.6857 50.2594 13.7864 50.0327C13.8871 49.8061 14.0323 49.6014 14.2137 49.4305C14.395 49.2596 14.6088 49.1259 14.8428 49.0371C15.0767 48.9483 15.3262 48.9062 15.5767 48.9132C15.8281 48.903 16.079 48.9429 16.3144 49.0305C16.5498 49.1181 16.7649 49.2517 16.9469 49.4232C17.1289 49.5947 17.274 49.8007 17.3736 50.0288C17.4732 50.257 17.5253 50.5026 17.5266 50.751C17.5228 50.9998 17.4692 51.2454 17.3691 51.4736C17.2689 51.7019 17.1241 51.9085 16.943 52.0814C16.7618 52.2543 16.5479 52.3902 16.3134 52.4813C16.079 52.5724 15.8286 52.6169 15.5767 52.6122C15.3238 52.6209 15.0717 52.5791 14.8355 52.4895C14.5992 52.3998 14.3837 52.2641 14.2017 52.0904C14.0197 51.9167 13.875 51.7086 13.7763 51.4785C13.6775 51.2483 13.6267 51.0009 13.6268 50.751ZM13.9291 53.8121H17.1829V63.9318H13.9054L13.9291 53.8121Z" fill="#E9F6FB"/>
<path d="M20.3554 61.1684V56.2929H18.4233V53.8113H20.3554V51.4174L23.627 50.4927V53.8113H26.7444L26.0095 56.2929H23.6388V60.3139C23.6388 61.2796 23.9411 61.5957 24.593 61.5957C25.1205 61.5871 25.6361 61.4396 26.0866 61.1684L26.9934 63.3515C25.9867 63.8915 24.8553 64.1638 23.7099 64.1417C21.6534 64.1417 20.3554 63.0121 20.3554 61.1684Z" fill="#E9F6FB"/>
<path d="M35.6219 63.9312C33.8439 68.4847 32.0658 68.9998 30.0567 68.9998C29.1514 68.9899 28.2585 68.7904 27.437 68.4145L28.2608 65.9329C28.7559 66.214 29.314 66.3688 29.8848 66.3835C30.9042 66.3835 31.7043 65.7983 32.4807 63.7322L27.7808 53.7822H31.2479L33.9802 60.2204H34.0217L36.2501 53.7822H39.6106L35.6219 63.9312Z" fill="#E9F6FB"/>
<path d="M44.6154 56.9129C44.6154 52.6344 47.6262 49.6787 51.9764 49.6787C56.3266 49.6787 59.3434 52.6344 59.3434 56.9129C59.3434 61.1914 56.3089 64.1413 51.9764 64.1413C47.6439 64.1413 44.6154 61.1914 44.6154 56.9129ZM55.811 56.9129C55.811 53.9162 54.2345 52.4003 51.9764 52.4003C49.7183 52.4003 48.1418 53.9162 48.1418 56.9129C48.1418 59.9096 49.7242 61.4548 51.9764 61.4548C54.2286 61.4548 55.811 59.9096 55.811 56.9129Z" fill="#E9F6FB"/>
<path d="M61.8419 53.8122H64.6334L64.9594 54.8365C65.9294 54.0404 67.142 53.589 68.4028 53.5547C70.0505 53.5547 71.8522 54.1985 71.8522 57.3181V63.9319H68.5806V58.2838C68.5806 57.2362 68.4028 56.3348 67.1938 56.3348C66.4373 56.3595 65.7085 56.622 65.1135 57.084V63.9319H61.8419V53.8122Z" fill="#E9F6FB"/>
<path d="M77.4182 59.8466C77.4834 61.0874 78.568 61.661 79.9489 61.661C80.8774 61.68 81.7928 61.4429 82.5922 60.9762L83.5464 63.1593C82.3807 63.8364 81.046 64.1771 79.694 64.1426C75.6164 64.1426 74.1466 61.579 74.1466 58.992C74.1466 55.9485 75.812 53.5547 79.0421 53.5547C82.1181 53.5547 83.9139 55.65 83.9139 59.0974V59.8466H77.4182ZM80.6423 57.7044C80.6662 57.4785 80.6418 57.2502 80.5706 57.0342C80.4995 56.8182 80.3831 56.6194 80.2292 56.4507C80.0753 56.282 79.8871 56.1471 79.677 56.0547C79.4669 55.9624 79.2395 55.9147 79.0095 55.9147C78.7795 55.9147 78.5521 55.9624 78.342 56.0547C78.1319 56.1471 77.9437 56.282 77.7898 56.4507C77.6359 56.6194 77.5195 56.8182 77.4484 57.0342C77.3772 57.2502 77.3528 57.4785 77.3767 57.7044H80.6423Z" fill="#E9F6FB"/>
</g>
<defs>
<clipPath id="clip0_443_2095">
<rect width="84" height="69" fill="white"/>
</clipPath>
</defs>
</svg>
