<svg width="214" height="88" viewBox="0 0 214 88" fill="none" xmlns="http://www.w3.org/2000/svg">
<g clip-path="url(#clip0_3_150)">
<path d="M112.706 29.0207C112.219 29.038 111.736 28.9163 111.316 28.6699C111.153 28.585 111.016 28.4583 110.919 28.3028C110.822 28.1474 110.768 27.969 110.763 27.7859C110.763 26.7827 111.613 25.3234 113.311 23.4081C115.063 23.3793 116.806 23.1438 118.502 22.7065C119.742 22.4024 120.913 21.8694 121.955 21.135C122.783 20.4989 123.196 19.8032 123.194 19.0478C123.2 18.821 123.154 18.5957 123.058 18.3898C122.962 18.184 122.819 18.0033 122.641 17.8621C122.2 17.5404 121.66 17.3817 121.114 17.4131C119.976 17.4131 118.496 17.7744 116.676 18.4971C114.894 19.1972 113.276 20.2551 111.921 21.605C111.338 22.1854 110.862 22.8634 110.514 23.608C108.824 25.0708 107.346 26.26 106.107 27.1159C104.294 28.3858 102.852 29.0207 101.782 29.0207C101.226 29.0207 100.948 28.7857 100.948 28.3191C100.948 27.6737 101.819 26.716 103.559 25.4462C104.788 24.5634 105.912 23.5443 106.91 22.4083C107.721 21.4712 108.161 20.2714 108.149 19.0338C108.149 17.9416 107.647 17.3968 106.642 17.3991C105.748 17.3991 103.989 18.2503 101.363 19.9528C98.8843 21.5485 96.5055 23.294 94.2404 25.1796L116.521 0H113.776C112.096 1.89426 110.699 3.41434 109.584 4.56025C108.47 5.70615 107.197 6.93158 105.766 8.23651C104.33 9.54378 102.261 11.3667 99.558 13.7053L89.9785 22.1242C84.5307 26.702 80.9234 29.0207 79.199 29.0207C78.7063 29.0207 78.4634 28.7857 78.4634 28.3191C78.4634 28.1858 79.0019 27.4281 80.0858 26.046C81.1698 24.6639 82.1587 23.4888 83.0526 22.5066L91.1927 13.2914H95.5144L95.8839 12.7231H91.6291L97.1896 6.44749H94.3073L88.7468 12.7231H86.2833L85.8117 13.2914H88.2752C86.3537 14.608 84.3887 16.0825 82.3804 17.7148C80.3721 19.3471 78.6758 20.8169 77.2915 22.1242V22.6609C81.3528 19.0759 84.5201 16.5268 86.7936 15.0137C83.1101 18.6853 80.636 21.5571 79.3714 23.6291C78.1068 25.7011 77.4769 27.1814 77.4815 28.0701C77.4814 28.2573 77.5197 28.4426 77.5942 28.6146C77.6686 28.7865 77.7776 28.9414 77.9144 29.0698C78.0756 29.22 78.2657 29.336 78.4732 29.4108C78.6807 29.4855 78.9013 29.5175 79.1215 29.5048C81.2331 29.5048 84.594 27.4784 89.2043 23.4256L105.393 9.33448L87.6206 29.4908H90.5029C93.1732 26.8156 96.0646 24.369 99.1463 22.1768C103.165 19.305 105.611 17.8691 106.484 17.8691C106.567 17.8681 106.65 17.8837 106.728 17.915C106.805 17.9463 106.875 17.9928 106.934 18.0516C107.039 18.1403 107.105 18.2662 107.117 18.4024C107.117 18.8479 106.839 19.3565 106.283 19.9353C105.727 20.5141 104.696 21.4612 103.2 22.7767C101.232 24.4675 100.249 26.2214 100.251 28.0385C100.251 28.9926 100.755 29.4732 101.758 29.4732C102.761 29.4732 104.189 28.8769 105.963 27.6877C107.433 26.6817 108.843 25.5912 110.186 24.4219C109.995 25.0187 109.894 25.6406 109.887 26.267C109.887 28.4021 110.826 29.4709 112.703 29.4732C114.947 29.4359 117.133 28.7578 119.002 27.5193C121.078 26.2167 123.367 24.319 125.868 21.826V21.2578C120.688 26.4214 116.299 29.0043 112.703 29.0067L112.706 29.0207ZM117.897 19.1846C119.237 18.3076 120.41 17.868 121.416 17.8656C122.173 17.8656 122.553 18.1884 122.553 18.8338C122.553 19.2337 122.222 19.7599 121.564 20.4053C120.725 21.1558 119.739 21.7244 118.668 22.0751C117.157 22.5795 115.569 22.8169 113.977 22.7767C115.099 21.3972 116.416 20.1872 117.886 19.1846" fill="#E9F6FB"/>
<path d="M21.9815 81.5338V87.2131H0V50.8749H5.72236V81.5338H21.9815Z" fill="#E9F6FB"/>
<path d="M54.1968 50.8784H48.4745V87.2166H54.1968V50.8784Z" fill="#E9F6FB"/>
<path d="M115.632 70.2173C115.632 81.0146 107.763 87.8234 98.2854 87.8234C87.6783 87.8234 79.2812 79.4045 79.2812 69.0913C79.2812 58.7781 87.7275 50.2679 98.0954 50.2679C102.688 50.289 107.949 52.499 111.37 55.835L108.182 60.5671C105.335 57.7608 101.495 56.0069 98.0285 56.0069C91.3806 56.0069 85.0916 61.5528 85.0916 69.0843C85.0916 76.2053 90.7682 82.0635 98.5494 82.0635C104.814 82.0635 109.515 78.2539 109.515 72.7114V72.5957H98.2186V67.3759H115.463C115.567 68.3196 115.619 69.268 115.621 70.2173" fill="#E9F6FB"/>
<path d="M165.409 50.8784V87.2131H159.687V71.8661H143.903V87.2131H138.202V50.8784H143.903V66.2044H159.687V50.8784H165.409Z" fill="#E9F6FB"/>
<path d="M214 56.5366H204.23V87.2131H198.487V56.5366H188.717V50.8784H214V56.5366Z" fill="#E9F6FB"/>
</g>
<defs>
<clipPath id="clip0_3_150">
<rect width="214" height="87.8234" fill="white"/>
</clipPath>
</defs>
</svg>
